<svg width="50" height="50" viewBox="0 0 40 40" fill="none" xmlns="http://www.w3.org/2000/svg">
<path d="M20.94 6.03483C20.6506 5.88074 20.3278 5.80016 20 5.80016C19.6722 5.80016 19.3494 5.88074 19.06 6.03483L7.06 12.4348C6.73989 12.6053 6.47216 12.8596 6.28544 13.1705C6.09873 13.4814 6.00006 13.8372 6 14.1998V15.8332L17.5 22.7332L20 21.2332L22.5 22.7332L34 15.8332V14.1998C33.9999 13.8372 33.9013 13.4814 33.7146 13.1705C33.5278 12.8596 33.2601 12.6053 32.94 12.4348L20.94 6.03483ZM34 18.1665L24.445 23.8998L34 29.6332V18.1665ZM33.93 31.9265L20 23.5632L6.07 31.9232C6.18492 32.3471 6.43619 32.7213 6.78501 32.9882C7.13383 33.2551 7.5608 33.3998 8 33.3998H32C32.4391 33.3995 32.866 33.2547 33.2147 32.9879C33.5635 32.721 33.8148 32.3469 33.93 31.9232V31.9248V31.9265ZM6 29.6332L15.5567 23.8998L6 18.1665V29.6332ZM18.1183 4.27149C18.6975 3.96276 19.3437 3.80127 20 3.80127C20.6563 3.80127 21.3025 3.96276 21.8817 4.27149L33.8817 10.6715C34.5213 11.0125 35.0563 11.5209 35.4294 12.1423C35.8025 12.7638 35.9997 13.475 36 14.1998V31.3998C36 32.4607 35.5786 33.4781 34.8284 34.2283C34.0783 34.9784 33.0609 35.3998 32 35.3998H8C6.93913 35.3998 5.92172 34.9784 5.17157 34.2283C4.42143 33.4781 4 32.4607 4 31.3998V14.1998C3.99996 13.4747 4.19704 12.7632 4.57017 12.1414C4.9433 11.5196 5.47843 11.0109 6.11833 10.6698L18.1183 4.26983V4.27149Z" fill="white"/>
</svg>
