<svg width="50" height="50" viewBox="0 0 40 40" fill="none" xmlns="http://www.w3.org/2000/svg">
<path d="M28.3317 21.88C27.2833 24.005 25.865 26.12 24.4117 28.02C23.0343 29.8112 21.5616 31.527 20 33.16C18.4386 31.5268 16.9659 29.811 15.5883 28.02C14.135 26.12 12.715 24.0033 11.6683 21.88C10.6083 19.735 9.99999 17.725 9.99999 16C9.99999 13.3478 11.0536 10.8043 12.9289 8.92893C14.8043 7.05357 17.3478 6 20 6C22.6522 6 25.1957 7.05357 27.0711 8.92893C28.9464 10.8043 30 13.3478 30 16C30 17.725 29.39 19.7333 28.3317 21.88ZM19.9983 36C19.9983 36 31.9983 24.6283 31.9983 16C31.9983 12.8174 30.734 9.76515 28.4836 7.51472C26.2332 5.26428 23.1809 4 19.9983 4C16.8157 4 13.7635 5.26428 11.513 7.51472C9.2626 9.76515 7.99832 12.8174 7.99832 16C7.99832 24.6283 19.9983 36 19.9983 36Z" fill="white"/>
<path d="M20 20C18.9389 20 17.9213 19.5785 17.171 18.8282C16.4207 18.0779 15.9992 17.0603 15.9992 15.9992C15.9992 14.9381 16.4207 13.9205 17.171 13.1702C17.9213 12.4198 18.9389 11.9983 20 11.9983C21.0611 11.9983 22.0787 12.4198 22.829 13.1702C23.5793 13.9205 24.0008 14.9381 24.0008 15.9992C24.0008 17.0603 23.5793 18.0779 22.829 18.8282C22.0787 19.5785 21.0611 20 20 20V20ZM20 22C20.7879 22 21.5681 21.8448 22.2961 21.5433C23.0241 21.2417 23.6855 20.7998 24.2426 20.2426C24.7998 19.6855 25.2418 19.0241 25.5433 18.2961C25.8448 17.5681 26 16.7879 26 16C26 15.2121 25.8448 14.4319 25.5433 13.7039C25.2418 12.9759 24.7998 12.3145 24.2426 11.7574C23.6855 11.2002 23.0241 10.7583 22.2961 10.4567C21.5681 10.1552 20.7879 10 20 10C18.4087 10 16.8826 10.6321 15.7574 11.7574C14.6321 12.8826 14 14.4087 14 16C14 17.5913 14.6321 19.1174 15.7574 20.2426C16.8826 21.3679 18.4087 22 20 22V22Z" fill="white"/>
</svg>
