<svg width="24" height="24" viewBox="0 0 28 36" fill="none" xmlns="http://www.w3.org/2000/svg">
<path d="M27 15C27 25.5 14 34.5 14 34.5C14 34.5 1 25.5 1 15C1 11.4196 2.36964 7.9858 4.80761 5.45406C7.24558 2.92232 10.5522 1.5 14 1.5C17.4478 1.5 20.7544 2.92232 23.1924 5.45406C25.6304 7.9858 27 11.4196 27 15Z" stroke="#3585F9" stroke-width="2" stroke-linecap="round" stroke-linejoin="round"/>
<path d="M14 19.5C16.3932 19.5 18.3333 17.4853 18.3333 15C18.3333 12.5147 16.3932 10.5 14 10.5C11.6068 10.5 9.66667 12.5147 9.66667 15C9.66667 17.4853 11.6068 19.5 14 19.5Z" stroke="#3585F9" stroke-width="2" stroke-linecap="round" stroke-linejoin="round"/>
</svg>
