<svg width="50" height="50" viewBox="0 0 40 40" fill="none" xmlns="http://www.w3.org/2000/svg">
<path fill-rule="evenodd" clip-rule="evenodd" d="M20 10.2968L18.5667 8.82179C15.2 5.36179 9.02833 6.55512 6.8 10.9051C5.83667 12.7901 5.56167 15.4468 7.01667 18.8001H4.86167C0.605 7.40679 13.1917 1.14012 19.6483 7.08679C19.7683 7.19679 19.8867 7.31012 20.0017 7.42846C20.1133 7.31179 20.2317 7.19679 20.3517 7.08846C26.8133 1.14012 39.3967 7.40512 35.14 18.8001H32.985C34.44 15.4468 34.165 12.7901 33.2017 10.9068C30.9733 6.55679 24.8017 5.36012 21.435 8.82012L20.0017 10.2968H20ZM8.42667 24.8001H11.0567C13.1883 27.1668 16.1 29.7168 20 32.3901C23.8967 29.7168 26.8133 27.1668 28.945 24.8001H31.575C29.045 27.9335 25.295 31.3001 19.9983 34.8001C14.7033 31.3001 10.9533 27.9335 8.42333 24.8001H8.42667ZM24.93 11.4285C24.8524 11.2348 24.7162 11.0703 24.5404 10.958C24.3646 10.8456 24.1582 10.7911 23.9498 10.8019C23.7415 10.8127 23.5418 10.8884 23.3787 11.0184C23.2155 11.1484 23.0971 11.3262 23.04 11.5268L19.845 22.7118L16.93 15.4285C16.8623 15.2594 16.7497 15.112 16.6043 15.0023C16.459 14.8926 16.2865 14.8246 16.1053 14.8057C15.9242 14.7868 15.7413 14.8178 15.5765 14.8952C15.4117 14.9727 15.2711 15.0937 15.17 15.2451L11.4667 20.8001H5C4.73478 20.8001 4.48043 20.9055 4.29289 21.093C4.10536 21.2806 4 21.5349 4 21.8001C4 22.0653 4.10536 22.3197 4.29289 22.5072C4.48043 22.6948 4.73478 22.8001 5 22.8001H12C12.1647 22.7999 12.3268 22.759 12.4719 22.6811C12.6169 22.6032 12.7405 22.4906 12.8317 22.3535L15.7767 17.9368L19.0717 26.1718C19.1493 26.3654 19.2855 26.5299 19.4613 26.6423C19.637 26.7546 19.8435 26.8092 20.0518 26.7984C20.2601 26.7875 20.4599 26.7118 20.623 26.5818C20.7861 26.4518 20.9046 26.2741 20.9617 26.0735L24.1567 14.8885L27.0717 22.1718C27.1458 22.357 27.2737 22.5158 27.4388 22.6278C27.604 22.7398 27.7988 22.7998 27.9983 22.8001H35C35.2652 22.8001 35.5196 22.6948 35.7071 22.5072C35.8946 22.3197 36 22.0653 36 21.8001C36 21.5349 35.8946 21.2806 35.7071 21.093C35.5196 20.9055 35.2652 20.8001 35 20.8001H28.6767L24.9283 11.4285H24.93Z" fill="white"/>
</svg>
