<svg width="20" height="20" viewBox="0 0 24 24" fill="none" xmlns="http://www.w3.org/2000/svg">
<g id="icons8-linkedin-2 1">
<path id="Vector" d="M4.2105 7H4.2365C5.6315 7 6.5 6 6.5 4.75C6.474 3.4725 5.6315 2.5 4.263 2.5C2.8945 2.5 2 3.4725 2 4.75C2 6 2.868 7 4.2105 7ZM2 8.5H6.5V21.5H2V8.5ZM22 13.25C22 10.6265 19.8735 8.5 17.25 8.5C15.7235 8.5 14.369 9.223 13.5 10.342V8.5H9V21.5H13.5V14C13.5 12.8955 14.3955 12 15.5 12C16.6045 12 17.5 12.8955 17.5 14V21.5H22C22 21.5 22 13.9775 22 13.25Z" fill="white"/>
</g>
</svg>
