<svg width="24" height="24" viewBox="0 0 35 36" fill="none" xmlns="http://www.w3.org/2000/svg">
<path d="M34 10.961V1.5M34 1.5H24.5207M34 1.5L22.9409 12.5378M32.4208 26.6031V31.3335C32.4226 31.7727 32.3324 32.2074 32.1562 32.6097C31.9799 33.0121 31.7214 33.3733 31.3972 33.6702C31.0729 33.9671 30.6901 34.1931 30.2733 34.3338C29.8565 34.4745 29.4149 34.5267 28.9767 34.4872C24.1151 33.96 19.4453 32.3019 15.3423 29.6463C11.5251 27.2254 8.28869 23.9953 5.86305 20.1854C3.19302 16.0717 1.53141 11.3882 1.01282 6.51427C0.973343 6.07823 1.02526 5.63876 1.16528 5.22384C1.3053 4.80892 1.53035 4.42764 1.82609 4.10428C2.12184 3.78093 2.4818 3.52257 2.88307 3.34567C3.28433 3.16877 3.71811 3.0772 4.15678 3.07679H8.89641C9.66314 3.06926 10.4064 3.34024 10.9878 3.83924C11.5691 4.33823 11.9489 5.03118 12.0562 5.78893C12.2562 7.30279 12.6272 8.78921 13.1621 10.2198C13.3746 10.7842 13.4206 11.3976 13.2946 11.9873C13.1686 12.5769 12.8759 13.1182 12.4511 13.5469L10.4447 15.5495C12.6937 19.4972 15.9687 22.7658 19.924 25.0105L21.9304 23.0079C22.36 22.5839 22.9023 22.2918 23.4931 22.166C24.0839 22.0403 24.6985 22.0862 25.2639 22.2983C26.6973 22.8322 28.1866 23.2024 29.7034 23.4021C30.4708 23.5102 31.1717 23.896 31.6728 24.4862C32.1738 25.0763 32.44 25.8297 32.4208 26.6031Z" stroke="#3585F9" stroke-width="2" stroke-linecap="round" stroke-linejoin="round"/>
</svg>
