<svg width="52" height="45" viewBox="0 0 52 45" fill="none" xmlns="http://www.w3.org/2000/svg">
<path fill-rule="evenodd" clip-rule="evenodd" d="M17.7482 14.5942C17.3838 14.8187 16.6971 16.2274 17.0078 17.4635C17.4697 19.3017 19.113 20.0191 19.113 20.0191C19.113 20.0191 21.6839 23.4135 21.6839 25.3876C21.6839 27.3616 21.6839 28.1285 20.9949 29.7754C20.306 31.4223 6.78238 33.3964 6.20825 43.1052H25.8919L45.7916 43.1073C45.2175 33.3985 31.6939 31.4244 31.0049 29.7775C30.316 28.1307 30.316 27.3637 30.316 25.3897C30.316 23.4156 32.8868 20.0212 32.8868 20.0212C32.8868 20.0212 34.5301 19.3038 34.9921 17.4656C35.3027 16.2296 34.6161 14.8208 34.2516 14.5964C35.2259 11.6235 37.1717 1.3748 26.108 1.00542C26.0588 0.998435 26.0099 0.999681 25.9612 1.00112C14.8281 1.37268 16.774 11.6214 17.7482 14.5942Z" stroke="white" stroke-width="2" stroke-linecap="round" stroke-linejoin="round"/>
<path fill-rule="evenodd" clip-rule="evenodd" d="M1 36.6368C4.24791 34.3594 8.29741 33.4758 8.6274 32.687C9.17278 31.3833 9.17278 30.7762 9.17278 29.2134C9.17278 27.6507 7.13764 24.9636 7.13764 24.9636C7.13764 24.9636 5.83677 24.3957 5.47104 22.9405C5.22513 21.962 5.7687 20.8468 6.05724 20.6691C5.28596 18.3158 3.74557 10.2026 12.5588 9.90843C12.5974 9.9073 12.6361 9.90631 12.675 9.91184C14.5757 9.9753 15.9914 10.4071 17.0352 11.0684C17.1712 12.5375 17.4931 13.8156 17.7483 14.5944C17.3838 14.8189 16.6972 16.2276 17.0078 17.4637C17.4698 19.3019 19.1131 20.0193 19.1131 20.0193C19.1131 20.0193 19.1667 20.0901 19.2584 20.2171C19.2117 20.3852 19.1655 20.5373 19.1218 20.6708C19.4103 20.8485 19.9539 21.9637 19.7079 22.9422C19.3422 24.3973 18.0413 24.9653 18.0413 24.9653C18.0413 24.9653 16.0062 27.6524 16.0062 29.2151C16.0062 30.5179 16.0062 31.1566 16.3222 32.0884C12.1215 33.9146 6.57168 36.9611 6.20833 43.1054H25.8919L45.7917 43.1075C45.4215 36.8484 39.6693 33.8039 35.4437 31.9894C35.7353 31.0968 35.7353 30.4579 35.7353 29.1897C35.7353 27.627 33.7001 24.9398 33.7001 24.9398C33.7001 24.9398 32.3993 24.3719 32.0335 22.9167C31.7876 21.9383 32.3312 20.823 32.6197 20.6454C32.6015 20.5898 32.5829 20.5311 32.564 20.4693C32.7606 20.1882 32.8869 20.0214 32.8869 20.0214C32.8869 20.0214 34.5302 19.304 34.9922 17.4658C35.3028 16.2298 34.6162 14.821 34.2517 14.5966C34.5171 13.7867 34.8546 12.4368 34.9816 10.8938C36.0056 10.3164 37.3557 9.9436 39.1213 9.88467C39.1599 9.88354 39.1986 9.88255 39.2375 9.88808C47.9959 10.1805 46.4555 18.2937 45.6842 20.647C45.9728 20.8247 46.5164 21.9399 46.2704 22.9184C45.9047 24.3736 44.6038 24.9415 44.6038 24.9415C44.6038 24.9415 42.5687 27.6287 42.5687 29.1914C42.5687 30.7541 42.5687 31.3612 43.1141 32.6649C43.4529 33.4748 47.7126 34.3846 51 36.8002V43.2167L39.0665 43.2154H28.2556C28.2561 43.2239 28.2566 43.2324 28.2571 43.2409L12.504 43.2392H1V36.6368Z" stroke="white" stroke-width="2" stroke-linecap="round" stroke-linejoin="round"/>
</svg>
